<svg id="Favicon" data-name="Favicon" xmlns="http://www.w3.org/2000/svg" viewBox="0 0 512 512"><defs><style>path {
            fill: #000;
        }
        @media (prefers-color-scheme: dark) {
            path {
                fill: #fff;
            }
        }</style></defs><path d="M487.983,364.763c0-39.237-13.768-69.526-40.614-92.242q-41.3-33.042-99.127-45.433v-2.065c64.708-15.144,110.829-52.316,110.829-103.945C459.071,40.538,381.973.613,226.4.613H24.017V19.2L48.8,21.952c27.535,4.13,33.73,7.572,37.172,22.717C88.725,57.059,90.79,72.2,90.79,114.2V380.6c0,41.3-1.377,68.149-4.819,80.54-4.13,15.144-9.637,19.275-37.172,22.716l-24.782,3.442v24.093H270.456q91.9,0,140.429-24.781C457.006,463.2,487.983,419.833,487.983,364.763ZM212.632,89.413c0-25.47.689-44.056,2.754-57.135h6.195c40.614-.689,79.163,4.13,97.75,26.158s19.274,35.107,19.274,64.707c0,77.787-41.991,111.517-125.973,111.517ZM258.065,481.1H256c-22.028,0-35.107-6.195-38.549-18.586-2.754-12.391-4.819-37.861-4.819-78.475V258.065c91.554-6.884,150.755,33.042,150.755,118.4C363.387,448.057,321.4,481.1,258.065,481.1Z"/></svg>