<svg id="Layer_1" data-name="Layer 1" xmlns="http://www.w3.org/2000/svg" viewBox="0 0 512 512"><defs><style>.cls-1{fill:#010101;}</style></defs><path class="cls-1" d="M109.846,341.671h.646s11,71.821,21.353,93.82c6.47,14.235,25.881,69.88,128.759,69.88h1.3c71.82,0,136.523-28.47,182.463-75.7s67.939-108.055,64.7-181.817C506.477,113.268,415.246,3.272,261.252,3.272S16.673,113.268,14.085,248.5c-2.589,61.469,17.9,120.729,47.88,154.642C83.614,427.632,109.846,341.671,109.846,341.671Zm250.4,60.175c-44.646,95.113-153.347,93.819-197.993-1.3-38.175-67.938-29.116-247.167,7.118-309.282,36.881-82.821,152.7-77.644,185.7,1.294C389.364,155.325,397.776,332.613,360.248,401.846Z"/></svg>