<svg version="1.1" id="belo" xmlns="http://www.w3.org/2000/svg" xmlns:xlink="http://www.w3.org/1999/xlink" x="0px" y="0px"
	 viewBox="0 0 512 512" style="enable-background:new 0 0 512 512;" xml:space="preserve">
     <defs>
	 <style>
        path {
            fill: #000;
        }
        @media (prefers-color-scheme: dark) {
            path {
                fill: #fff;
            }
        }
    </style>
	 </defs>
<path d="M101.232,345.072h0.66c0,0,11.217,73.237,21.773,95.67C130.263,455.258,150.057,512,254.964,512h1.32
	c73.237,0,139.216-29.031,186.062-77.196c46.845-48.165,69.278-110.186,65.979-185.402C505.685,112.165,412.654,0,255.624,0
	C98.593,0,6.222,112.165,3.583,250.062c-2.639,62.68,18.257,123.109,48.824,157.691C74.483,432.728,101.232,345.072,101.232,345.072
	z M356.572,406.433c-45.526,96.989-156.371,95.67-201.897-1.32c-38.928-69.278-29.691-252.041,7.258-315.381
	c37.608-84.454,155.711-79.175,189.361,1.319C386.263,155.051,394.84,335.835,356.572,406.433z"/>
</svg>
