<?xml version="1.0" encoding="utf-8"?>
<!-- Generator: Adobe Illustrator 25.0.1, SVG Export Plug-In . SVG Version: 6.00 Build 0)  -->
<svg version="1.1" id="Layer_1" xmlns="http://www.w3.org/2000/svg" xmlns:xlink="http://www.w3.org/1999/xlink" x="0px" y="0px"
	 viewBox="0 0 258.6 77.6" style="enable-background:new 0 0 258.6 77.6;" xml:space="preserve">
<path d="M217.2,0c-23.8,0-37.8,17-38.2,37.9c-0.4,9.5,2.5,17.2,7.4,23.9c-1.5,2-7.2,4.6-8.8,5.4c-5.2,2.6-10.5,3.9-16.2,3.9
	c-3.1,0-4.1-0.7-4.6-2.8c-0.3-1.4-0.6-5.4-0.6-12V19.6c0-6,0.2-9.9,0.7-11.7c0.6-2.2,1.3-2.8,5.3-3.3l3.7-0.4V1.8h-37.1v2.4l3.6,0.4
	c4,0.6,4.9,1.1,5.4,3.3c0.4,1.8,0.7,5.7,0.7,11.7v37.5c0,6-0.2,9.9-0.7,11.7c-0.6,2.2-1.4,2.8-5.4,3.3l-3.6,0.4v3.4h60.5l4.5-23.6
	h0.1c0,0,1.7,11.1,3.3,14.5c1,2.2,4,10.8,19.9,10.8h0.2c11.1,0,21.1-4.4,28.2-11.7c7.1-7.3,10.5-16.7,10-28.1
	C255.1,17,241,0,217.2,0z M232.5,61.6c-6.9,14.7-23.7,14.5-30.6-0.2c-5.9-10.5-4.5-38.2,1.1-47.8c5.7-12.8,23.6-12,28.7,0.2
	C237,23.5,238.3,50.9,232.5,61.6z M67.4,54.7c0-5.7-2-10.1-5.9-13.4c-4-3.2-8.8-5.4-14.4-6.6v-0.3c9.4-2.2,16.1-7.6,16.1-15.1
	C63.2,7.6,52,1.8,29.4,1.8H0v2.7l3.6,0.4C7.6,5.5,8.5,6,9,8.2c0.4,1.8,0.7,4,0.7,10.1V57c0,6-0.2,9.9-0.7,11.7
	c-0.6,2.2-1.4,2.8-5.4,3.3L0,72.5V76h35.8c8.9,0,15.7-1.2,20.4-3.6C62.9,69,67.4,62.7,67.4,54.7z M27.4,14.7c0-3.7,0.1-6.4,0.4-8.3
	h0.9c5.9-0.1,11.5,0.6,14.2,3.8s2.8,5.1,2.8,9.4c0,11.3-6.1,16.2-18.3,16.2C27.4,35.8,27.4,14.7,27.4,14.7z M34,71.6h-0.3
	c-3.2,0-5.1-0.9-5.6-2.7c-0.4-1.8-0.7-5.5-0.7-11.4V39.2c13.3-1,21.9,4.8,21.9,17.2C49.3,66.8,43.2,71.6,34,71.6z"/>
<path d="M128,53.7c-4.6,7-7.8,9.2-9.8,11.3c-1.2,1.2-2.9,2.4-5,3.4c-1.8,0.9-4.3,1.7-7.7,2.2c-3.4,0.7-6.6,1-9.3,1
	c-3,0-4-0.6-4.6-2.8c-0.3-1.4-0.6-5.2-0.6-11.1V40.4l6.3,0.3c4.9,0.3,8.2,1.3,9.9,3c1.1,1.1,2.3,2,3.8,5.5l1.4,3.6l0.8-0.1l0.7-29.1
	l-0.8-0.2l-1.4,3.6c-1.1,2.8-2.4,4.2-4.1,5.9c-1.9,1.9-5.4,3-10.4,3.3l-6.1,0.3V6.1c0,0,17.7-1.1,24.3,5.7c1.8,1.8,4.4,4.4,8,12
	l0.8-0.2l0.4-21.7h-61v2.6l3.6,0.4c4,0.6,4.9,1.1,5.4,3.3C73,10,73.3,13.9,73.3,20v37.4c0,6-0.2,9.9-0.7,11.7
	c-0.6,2.2-1.4,2.8-5.4,3.3l-3.5,0.5V76h60.7l4.3-21.9L128,53.7L128,53.7z"/>
</svg>
